# MagicaVoxel @ Ephtracy

# group
o 

# material
mtllib cleaning stuff.mtl
usemtl palette

# normals
vn -1 0 0
vn 1 0 0
vn 0 0 1
vn 0 0 -1
vn 0 -1 0
vn 0 1 0

# texcoords
vt 0.302734 0.5
vt 0.986328 0.5
vt 0.990234 0.5
vt 0.994141 0.5

# verts
v -0.5 0 -0.4
v -0.5 0 -0.6
v -0.5 0.8 -0.4
v -0.5 0.8 -0.6
v -0.4 0 -0.3
v -0.4 0 -0.4
v -0.4 0 -0.6
v -0.4 0 -0.7
v -0.4 0.8 -0.3
v -0.4 0.8 -0.4
v -0.4 0.8 -0.6
v -0.4 0.8 -0.7
v -0.3 0 -0.2
v -0.3 0 -0.3
v -0.3 0 -0.7
v -0.3 0 -0.8
v -0.3 0.8 -0.2
v -0.3 0.8 -0.3
v -0.3 0.8 -0.6
v -0.3 0.8 -0.7
v -0.3 0.8 -0.8
v -0.3 1.8 -0.6
v -0.3 1.8 -0.7
v -0.2 0 -0.1
v -0.2 0 -0.2
v -0.2 0 -0.8
v -0.2 0 -0.9
v -0.2 0.8 -0.1
v -0.2 0.8 -0.2
v -0.2 0.8 -0.8
v -0.2 0.8 -0.9
v 0.1 0.4 -0.3
v 0.1 0.4 -0.7
v 0.1 0.8 -0.3
v 0.1 0.8 -0.7
v 0.5 0 -0.4
v 0.5 0 -0.6
v 0.5 0.6 -0.4
v 0.5 0.6 -0.6
v 0.8 0.6 -0.5
v 0.8 0.6 -0.6
v 0.8 1.8 -0.5
v 0.8 1.8 -0.6
v -0.3 0.4 -0.3
v -0.3 0.4 -0.6
v -0.3 0.8 -0.3
v -0.3 0.8 -0.6
v -0.2 0.4 -0.6
v -0.2 0.4 -0.7
v -0.2 0.8 -0.7
v -0.2 1.8 -0.6
v -0.2 1.8 -0.7
v 0 0 -0.1
v 0 0 -0.2
v 0 0 -0.8
v 0 0 -0.9
v 0 0.8 -0.1
v 0 0.8 -0.2
v 0 0.8 -0.8
v 0 0.8 -0.9
v 0.1 0 -0.2
v 0.1 0 -0.3
v 0.1 0 -0.7
v 0.1 0 -0.8
v 0.1 0.8 -0.2
v 0.1 0.8 -0.3
v 0.1 0.8 -0.7
v 0.1 0.8 -0.8
v 0.2 0 -0.3
v 0.2 0 -0.4
v 0.2 0 -0.6
v 0.2 0 -0.7
v 0.2 0.8 -0.3
v 0.2 0.8 -0.4
v 0.2 0.8 -0.6
v 0.2 0.8 -0.7
v 0.3 0 -0.4
v 0.3 0 -0.6
v 0.3 0.8 -0.4
v 0.3 0.8 -0.6
v 0.9 0.6 -0.5
v 0.9 0.6 -0.6
v 0.9 1.8 -0.5
v 0.9 1.8 -0.6
v 1.2 0 -0.4
v 1.2 0 -0.6
v 1.2 0.6 -0.4
v 1.2 0.6 -0.6
v -0.2 0 -0.1
v -0.2 0.8 -0.1
v 0 0 -0.1
v 0 0.8 -0.1
v -0.3 0 -0.2
v -0.3 0.8 -0.2
v -0.2 0 -0.2
v -0.2 0.8 -0.2
v 0 0 -0.2
v 0 0.8 -0.2
v 0.1 0 -0.2
v 0.1 0.8 -0.2
v -0.4 0 -0.3
v -0.4 0.8 -0.3
v -0.3 0 -0.3
v -0.3 0.8 -0.3
v 0.1 0 -0.3
v 0.1 0.8 -0.3
v 0.2 0 -0.3
v 0.2 0.8 -0.3
v -0.5 0 -0.4
v -0.5 0.8 -0.4
v -0.4 0 -0.4
v -0.4 0.8 -0.4
v 0.2 0 -0.4
v 0.2 0.8 -0.4
v 0.3 0 -0.4
v 0.3 0.8 -0.4
v 0.5 0 -0.4
v 0.5 0.6 -0.4
v 0.6 0.1 -0.4
v 0.6 0.5 -0.4
v 1.1 0.1 -0.4
v 1.1 0.5 -0.4
v 1.2 0 -0.4
v 1.2 0.6 -0.4
v 0.8 0.6 -0.5
v 0.8 1.8 -0.5
v 0.9 0.6 -0.5
v 0.9 1.8 -0.5
v -0.3 0.4 -0.6
v -0.3 0.8 -0.6
v -0.3 1.8 -0.6
v -0.2 0.4 -0.6
v -0.2 1.8 -0.6
v -0.2 0.4 -0.7
v -0.2 0.8 -0.7
v 0.1 0.4 -0.7
v 0.1 0.8 -0.7
v -0.3 0.4 -0.3
v -0.3 0.8 -0.3
v 0.1 0.4 -0.3
v 0.1 0.8 -0.3
v -0.5 0 -0.6
v -0.5 0.8 -0.6
v -0.4 0 -0.6
v -0.4 0.8 -0.6
v 0.2 0 -0.6
v 0.2 0.8 -0.6
v 0.3 0 -0.6
v 0.3 0.8 -0.6
v 0.5 0 -0.6
v 0.5 0.6 -0.6
v 0.8 0.6 -0.6
v 0.8 1.8 -0.6
v 0.9 0.6 -0.6
v 0.9 1.8 -0.6
v 1.2 0 -0.6
v 1.2 0.6 -0.6
v -0.4 0 -0.7
v -0.4 0.8 -0.7
v -0.3 0 -0.7
v -0.3 0.8 -0.7
v -0.3 1.8 -0.7
v -0.2 0.8 -0.7
v -0.2 1.8 -0.7
v 0.1 0 -0.7
v 0.1 0.8 -0.7
v 0.2 0 -0.7
v 0.2 0.8 -0.7
v -0.3 0 -0.8
v -0.3 0.8 -0.8
v -0.2 0 -0.8
v -0.2 0.8 -0.8
v 0 0 -0.8
v 0 0.8 -0.8
v 0.1 0 -0.8
v 0.1 0.8 -0.8
v -0.2 0 -0.9
v -0.2 0.8 -0.9
v 0 0 -0.9
v 0 0.8 -0.9
v -0.2 0 -0.1
v 0 0 -0.1
v -0.3 0 -0.2
v -0.2 0 -0.2
v 0 0 -0.2
v 0.1 0 -0.2
v -0.4 0 -0.3
v -0.3 0 -0.3
v -0.2 0 -0.3
v 0 0 -0.3
v 0.1 0 -0.3
v 0.2 0 -0.3
v -0.5 0 -0.4
v -0.4 0 -0.4
v -0.3 0 -0.4
v 0.1 0 -0.4
v 0.2 0 -0.4
v 0.3 0 -0.4
v 0.5 0 -0.4
v 1.2 0 -0.4
v -0.5 0 -0.6
v -0.4 0 -0.6
v -0.3 0 -0.6
v 0.1 0 -0.6
v 0.2 0 -0.6
v 0.3 0 -0.6
v 0.5 0 -0.6
v 1.2 0 -0.6
v -0.4 0 -0.7
v -0.3 0 -0.7
v -0.1 0 -0.7
v 0 0 -0.7
v 0.1 0 -0.7
v 0.2 0 -0.7
v -0.3 0 -0.8
v -0.2 0 -0.8
v -0.1 0 -0.8
v 0 0 -0.8
v 0.1 0 -0.8
v -0.2 0 -0.9
v 0 0 -0.9
v -0.3 0.4 -0.3
v 0.1 0.4 -0.3
v -0.3 0.4 -0.6
v -0.2 0.4 -0.6
v -0.2 0.4 -0.7
v 0.1 0.4 -0.7
v 0.5 0.6 -0.4
v 1.2 0.6 -0.4
v 0.8 0.6 -0.5
v 0.9 0.6 -0.5
v 0.5 0.6 -0.6
v 0.8 0.6 -0.6
v 0.9 0.6 -0.6
v 1.2 0.6 -0.6
v -0.2 0.8 -0.1
v 0 0.8 -0.1
v -0.3 0.8 -0.2
v -0.2 0.8 -0.2
v 0 0.8 -0.2
v 0.1 0.8 -0.2
v -0.4 0.8 -0.3
v -0.3 0.8 -0.3
v 0.1 0.8 -0.3
v 0.2 0.8 -0.3
v -0.5 0.8 -0.4
v -0.4 0.8 -0.4
v 0.2 0.8 -0.4
v 0.3 0.8 -0.4
v -0.5 0.8 -0.6
v -0.4 0.8 -0.6
v -0.3 0.8 -0.6
v 0.2 0.8 -0.6
v 0.3 0.8 -0.6
v -0.4 0.8 -0.7
v -0.3 0.8 -0.7
v -0.2 0.8 -0.7
v 0.1 0.8 -0.7
v 0.2 0.8 -0.7
v -0.3 0.8 -0.8
v -0.2 0.8 -0.8
v 0 0.8 -0.8
v 0.1 0.8 -0.8
v -0.2 0.8 -0.9
v 0 0.8 -0.9
v 0.8 1.8 -0.5
v 0.9 1.8 -0.5
v -0.3 1.8 -0.6
v -0.2 1.8 -0.6
v 0.8 1.8 -0.6
v 0.9 1.8 -0.6
v -0.3 1.8 -0.7
v -0.2 1.8 -0.7

# faces
f 3/1/1 2/1/1 1/1/1
f 4/1/1 2/1/1 3/1/1
f 9/1/1 6/1/1 5/1/1
f 10/1/1 6/1/1 9/1/1
f 11/1/1 8/1/1 7/1/1
f 12/1/1 8/1/1 11/1/1
f 17/1/1 14/1/1 13/1/1
f 18/1/1 14/1/1 17/1/1
f 20/1/1 16/1/1 15/1/1
f 21/1/1 16/1/1 20/1/1
f 22/2/1 20/2/1 19/2/1
f 23/2/1 20/2/1 22/2/1
f 28/1/1 25/1/1 24/1/1
f 29/1/1 25/1/1 28/1/1
f 30/1/1 27/1/1 26/1/1
f 31/1/1 27/1/1 30/1/1
f 34/1/1 33/1/1 32/1/1
f 35/1/1 33/1/1 34/1/1
f 38/4/1 37/4/1 36/4/1
f 39/4/1 37/4/1 38/4/1
f 42/4/1 41/4/1 40/4/1
f 43/4/1 41/4/1 42/4/1
f 44/1/2 45/1/2 46/1/2
f 46/1/2 45/1/2 47/1/2
f 48/2/2 49/2/2 50/2/2
f 48/2/2 50/2/2 51/2/2
f 51/2/2 50/2/2 52/2/2
f 53/1/2 54/1/2 57/1/2
f 57/1/2 54/1/2 58/1/2
f 55/1/2 56/1/2 59/1/2
f 59/1/2 56/1/2 60/1/2
f 61/1/2 62/1/2 65/1/2
f 65/1/2 62/1/2 66/1/2
f 63/1/2 64/1/2 67/1/2
f 67/1/2 64/1/2 68/1/2
f 69/1/2 70/1/2 73/1/2
f 73/1/2 70/1/2 74/1/2
f 71/1/2 72/1/2 75/1/2
f 75/1/2 72/1/2 76/1/2
f 77/1/2 78/1/2 79/1/2
f 79/1/2 78/1/2 80/1/2
f 81/4/2 82/4/2 83/4/2
f 83/4/2 82/4/2 84/4/2
f 85/4/2 86/4/2 87/4/2
f 87/4/2 86/4/2 88/4/2
f 91/1/3 90/1/3 89/1/3
f 92/1/3 90/1/3 91/1/3
f 95/1/3 94/1/3 93/1/3
f 96/1/3 94/1/3 95/1/3
f 99/1/3 98/1/3 97/1/3
f 100/1/3 98/1/3 99/1/3
f 103/1/3 102/1/3 101/1/3
f 104/1/3 102/1/3 103/1/3
f 107/1/3 106/1/3 105/1/3
f 108/1/3 106/1/3 107/1/3
f 111/1/3 110/1/3 109/1/3
f 112/1/3 110/1/3 111/1/3
f 115/1/3 114/1/3 113/1/3
f 116/1/3 114/1/3 115/1/3
f 119/4/3 118/4/3 117/4/3
f 120/4/3 118/4/3 119/4/3
f 121/4/3 119/4/3 117/4/3
f 121/3/3 120/3/3 119/3/3
f 122/4/3 118/4/3 120/4/3
f 122/3/3 120/3/3 121/3/3
f 123/4/3 121/4/3 117/4/3
f 123/4/3 122/4/3 121/4/3
f 124/4/3 118/4/3 122/4/3
f 124/4/3 122/4/3 123/4/3
f 127/4/3 126/4/3 125/4/3
f 128/4/3 126/4/3 127/4/3
f 132/2/3 130/2/3 129/2/3
f 132/2/3 131/2/3 130/2/3
f 133/2/3 131/2/3 132/2/3
f 136/1/3 135/1/3 134/1/3
f 137/1/3 135/1/3 136/1/3
f 138/1/4 139/1/4 140/1/4
f 140/1/4 139/1/4 141/1/4
f 142/1/4 143/1/4 144/1/4
f 144/1/4 143/1/4 145/1/4
f 146/1/4 147/1/4 148/1/4
f 148/1/4 147/1/4 149/1/4
f 150/4/4 151/4/4 152/4/4
f 150/4/4 152/4/4 154/4/4
f 152/4/4 153/4/4 154/4/4
f 154/4/4 153/4/4 155/4/4
f 150/4/4 154/4/4 156/4/4
f 156/4/4 154/4/4 157/4/4
f 158/1/4 159/1/4 160/1/4
f 160/1/4 159/1/4 161/1/4
f 161/2/4 162/2/4 163/2/4
f 163/2/4 162/2/4 164/2/4
f 165/1/4 166/1/4 167/1/4
f 167/1/4 166/1/4 168/1/4
f 169/1/4 170/1/4 171/1/4
f 171/1/4 170/1/4 172/1/4
f 173/1/4 174/1/4 175/1/4
f 175/1/4 174/1/4 176/1/4
f 177/1/4 178/1/4 179/1/4
f 179/1/4 178/1/4 180/1/4
f 184/1/5 182/1/5 181/1/5
f 185/1/5 182/1/5 184/1/5
f 188/1/5 184/1/5 183/1/5
f 189/2/5 185/2/5 184/2/5
f 189/1/5 184/1/5 188/1/5
f 190/1/5 186/1/5 185/1/5
f 190/2/5 185/2/5 189/2/5
f 191/1/5 186/1/5 190/1/5
f 194/1/5 188/1/5 187/1/5
f 195/2/5 189/2/5 188/2/5
f 195/2/5 190/2/5 189/2/5
f 195/1/5 188/1/5 194/1/5
f 195/2/5 191/2/5 190/2/5
f 196/1/5 192/1/5 191/1/5
f 196/2/5 191/2/5 195/2/5
f 197/1/5 192/1/5 196/1/5
f 201/1/5 194/1/5 193/1/5
f 202/2/5 195/2/5 194/2/5
f 202/1/5 194/1/5 201/1/5
f 202/2/5 196/2/5 195/2/5
f 202/2/5 197/2/5 196/2/5
f 203/2/5 197/2/5 202/2/5
f 204/2/5 197/2/5 203/2/5
f 205/1/5 198/1/5 197/1/5
f 205/2/5 197/2/5 204/2/5
f 206/1/5 198/1/5 205/1/5
f 207/4/5 200/4/5 199/4/5
f 208/4/5 200/4/5 207/4/5
f 209/1/5 203/1/5 202/1/5
f 210/2/5 204/2/5 203/2/5
f 210/1/5 203/1/5 209/1/5
f 211/2/5 204/2/5 210/2/5
f 212/2/5 204/2/5 211/2/5
f 213/1/5 205/1/5 204/1/5
f 213/2/5 204/2/5 212/2/5
f 214/1/5 205/1/5 213/1/5
f 215/1/5 211/1/5 210/1/5
f 216/1/5 211/1/5 215/1/5
f 217/2/5 212/2/5 211/2/5
f 217/1/5 211/1/5 216/1/5
f 218/1/5 213/1/5 212/1/5
f 218/2/5 212/2/5 217/2/5
f 219/1/5 213/1/5 218/1/5
f 220/1/5 217/1/5 216/1/5
f 220/1/5 218/1/5 217/1/5
f 221/1/5 218/1/5 220/1/5
f 222/1/6 223/1/6 224/1/6
f 224/1/6 223/1/6 225/1/6
f 225/1/6 223/1/6 226/1/6
f 226/1/6 223/1/6 227/1/6
f 228/4/6 229/4/6 230/4/6
f 230/4/6 229/4/6 231/4/6
f 228/4/6 230/4/6 232/4/6
f 232/4/6 230/4/6 233/4/6
f 231/4/6 229/4/6 234/4/6
f 234/4/6 229/4/6 235/4/6
f 236/1/6 237/1/6 239/1/6
f 239/1/6 237/1/6 240/1/6
f 238/1/6 239/1/6 243/1/6
f 240/1/6 241/1/6 243/1/6
f 239/1/6 240/1/6 243/1/6
f 243/1/6 241/1/6 244/1/6
f 242/1/6 243/1/6 247/1/6
f 244/1/6 245/1/6 248/1/6
f 246/1/6 247/1/6 250/1/6
f 247/1/6 243/1/6 251/1/6
f 250/1/6 247/1/6 251/1/6
f 251/1/6 243/1/6 252/1/6
f 248/1/6 249/1/6 253/1/6
f 244/1/6 248/1/6 253/1/6
f 253/1/6 249/1/6 254/1/6
f 251/1/6 252/1/6 255/1/6
f 255/1/6 252/1/6 256/1/6
f 244/1/6 253/1/6 258/1/6
f 258/1/6 253/1/6 259/1/6
f 256/1/6 257/1/6 260/1/6
f 257/1/6 258/1/6 260/1/6
f 260/1/6 258/1/6 261/1/6
f 261/1/6 258/1/6 262/1/6
f 262/1/6 258/1/6 263/1/6
f 261/1/6 262/1/6 264/1/6
f 264/1/6 262/1/6 265/1/6
f 266/4/6 267/4/6 270/4/6
f 270/4/6 267/4/6 271/4/6
f 268/2/6 269/2/6 272/2/6
f 272/2/6 269/2/6 273/2/6
