# MagicaVoxel @ Ephtracy

# group
o 

# material
mtllib doorway.mtl
usemtl palette

# normals
vn -1 0 0
vn 1 0 0
vn 0 0 1
vn 0 0 -1
vn 0 -1 0
vn 0 1 0

# texcoords
vt 0.587891 0.5
vt 0.958984 0.5
vt 0.986328 0.5

# verts
v -2 0 0.1
v -2 0 -0.1
v -2 0.1 0.1
v -2 0.1 0
v -2 0.1 -0.1
v -2 2.1 0
v -2 2.1 -0.1
v -2 3.9 0.1
v -2 3.9 0
v -2 3.9 -0.1
v -2 4 0.1
v -2 4 -0.1
v -0.6 0.1 0.1
v -0.6 0.1 0
v -0.6 2.1 0
v -0.6 2.7 0.1
v -0.6 2.7 0
v 0.6 0.1 0.1
v 0.6 0.1 -0.1
v 0.6 2.6 0.1
v 0.6 2.6 -0.1
v -0.5 0.1 0.1
v -0.5 0.1 -0.1
v -0.5 2.6 0.1
v -0.5 2.6 -0.1
v 0.7 0.1 0.1
v 0.7 0.1 0
v 0.7 2.1 0
v 0.7 2.7 0.1
v 0.7 2.7 0
v 2 0 0.1
v 2 0 -0.1
v 2 0.1 0.1
v 2 0.1 0
v 2 0.1 -0.1
v 2 2.1 0
v 2 2.1 -0.1
v 2 3.9 0.1
v 2 3.9 0
v 2 3.9 -0.1
v 2 4 0.1
v 2 4 -0.1
v -2 0 0.1
v -2 0.1 0.1
v -2 3.9 0.1
v -2 4 0.1
v -0.6 0.1 0.1
v -0.6 2.7 0.1
v -0.5 0.1 0.1
v -0.5 2.6 0.1
v 0.6 0.1 0.1
v 0.6 2.6 0.1
v 0.7 0.1 0.1
v 0.7 2.7 0.1
v 2 0 0.1
v 2 0.1 0.1
v 2 3.9 0.1
v 2 4 0.1
v -2 0.1 0
v -2 2.1 0
v -2 3.9 0
v -0.6 0.1 0
v -0.6 2.1 0
v -0.6 2.7 0
v 0.7 0.1 0
v 0.7 2.1 0
v 0.7 2.7 0
v 2 0.1 0
v 2 2.1 0
v 2 3.9 0
v -2 0 -0.1
v -2 0.1 -0.1
v -2 2.1 -0.1
v -2 3.9 -0.1
v -2 4 -0.1
v -0.6 0.1 -0.1
v -0.6 2.1 -0.1
v -0.6 2.6 -0.1
v -0.5 0.1 -0.1
v -0.5 2.6 -0.1
v -0.5 2.7 -0.1
v 0.6 0.1 -0.1
v 0.6 2.6 -0.1
v 0.7 0.1 -0.1
v 0.7 2.1 -0.1
v 0.7 2.7 -0.1
v 2 0 -0.1
v 2 0.1 -0.1
v 2 2.1 -0.1
v 2 3.9 -0.1
v 2 4 -0.1
v -2 0 0.1
v 2 0 0.1
v -2 0 -0.1
v 2 0 -0.1
v -0.5 2.6 0.1
v 0.6 2.6 0.1
v -0.5 2.6 -0.1
v 0.6 2.6 -0.1
v -2 3.9 0.1
v 2 3.9 0.1
v -2 3.9 0
v 2 3.9 0
v -2 0.1 0.1
v -0.6 0.1 0.1
v -0.5 0.1 0.1
v 0.6 0.1 0.1
v 0.7 0.1 0.1
v 2 0.1 0.1
v -2 0.1 0
v -0.6 0.1 0
v 0.7 0.1 0
v 2 0.1 0
v -0.5 0.1 -0.1
v 0.6 0.1 -0.1
v -0.6 2.7 0.1
v 0.7 2.7 0.1
v -0.6 2.7 0
v 0.7 2.7 0
v -2 4 0.1
v 2 4 0.1
v -2 4 -0.1
v 2 4 -0.1

# faces
f 3/3/1 2/3/1 1/3/1
f 4/3/1 2/3/1 3/3/1
f 5/3/1 2/3/1 4/3/1
f 6/1/1 5/1/1 4/1/1
f 7/1/1 5/1/1 6/1/1
f 9/2/1 7/2/1 6/2/1
f 10/2/1 7/2/1 9/2/1
f 11/3/1 9/3/1 8/3/1
f 11/3/1 10/3/1 9/3/1
f 12/3/1 10/3/1 11/3/1
f 15/3/1 14/3/1 13/3/1
f 16/3/1 15/3/1 13/3/1
f 17/3/1 15/3/1 16/3/1
f 20/3/1 19/3/1 18/3/1
f 21/3/1 19/3/1 20/3/1
f 22/3/2 23/3/2 24/3/2
f 24/3/2 23/3/2 25/3/2
f 26/3/2 27/3/2 28/3/2
f 26/3/2 28/3/2 29/3/2
f 29/3/2 28/3/2 30/3/2
f 31/3/2 32/3/2 33/3/2
f 33/3/2 32/3/2 34/3/2
f 34/3/2 32/3/2 35/3/2
f 34/1/2 35/1/2 36/1/2
f 36/1/2 35/1/2 37/1/2
f 36/2/2 37/2/2 39/2/2
f 39/2/2 37/2/2 40/2/2
f 38/3/2 39/3/2 41/3/2
f 39/3/2 40/3/2 41/3/2
f 41/3/2 40/3/2 42/3/2
f 47/3/3 44/3/3 43/3/3
f 49/3/3 47/3/3 43/3/3
f 49/3/3 48/3/3 47/3/3
f 50/3/3 48/3/3 49/3/3
f 51/3/3 49/3/3 43/3/3
f 52/3/3 48/3/3 50/3/3
f 53/3/3 51/3/3 43/3/3
f 53/3/3 52/3/3 51/3/3
f 54/3/3 48/3/3 52/3/3
f 54/3/3 52/3/3 53/3/3
f 55/3/3 53/3/3 43/3/3
f 56/3/3 53/3/3 55/3/3
f 57/3/3 46/3/3 45/3/3
f 58/3/3 46/3/3 57/3/3
f 62/1/3 60/1/3 59/1/3
f 63/2/3 61/2/3 60/2/3
f 63/1/3 60/1/3 62/1/3
f 64/2/3 61/2/3 63/2/3
f 67/2/3 61/2/3 64/2/3
f 68/1/3 66/1/3 65/1/3
f 69/2/3 67/2/3 66/2/3
f 69/1/3 66/1/3 68/1/3
f 70/2/3 61/2/3 67/2/3
f 70/2/3 67/2/3 69/2/3
f 71/3/4 72/3/4 76/3/4
f 72/1/4 73/1/4 76/1/4
f 73/2/4 74/2/4 77/2/4
f 76/1/4 73/1/4 77/1/4
f 77/2/4 74/2/4 78/2/4
f 71/3/4 76/3/4 79/3/4
f 76/3/4 77/3/4 79/3/4
f 77/3/4 78/3/4 79/3/4
f 78/2/4 74/2/4 80/2/4
f 79/3/4 78/3/4 80/3/4
f 80/2/4 74/2/4 81/2/4
f 71/3/4 79/3/4 82/3/4
f 80/3/4 81/3/4 83/3/4
f 71/3/4 82/3/4 84/3/4
f 82/3/4 83/3/4 84/3/4
f 84/3/4 83/3/4 85/3/4
f 81/2/4 74/2/4 86/2/4
f 85/3/4 83/3/4 86/3/4
f 83/3/4 81/3/4 86/3/4
f 71/3/4 84/3/4 87/3/4
f 84/1/4 85/1/4 88/1/4
f 87/3/4 84/3/4 88/3/4
f 85/2/4 86/2/4 89/2/4
f 88/1/4 85/1/4 89/1/4
f 74/3/4 75/3/4 90/3/4
f 89/2/4 86/2/4 90/2/4
f 86/2/4 74/2/4 90/2/4
f 90/3/4 75/3/4 91/3/4
f 94/3/5 93/3/5 92/3/5
f 95/3/5 93/3/5 94/3/5
f 98/3/5 97/3/5 96/3/5
f 99/3/5 97/3/5 98/3/5
f 102/3/5 101/3/5 100/3/5
f 103/3/5 101/3/5 102/3/5
f 104/3/6 105/3/6 110/3/6
f 110/3/6 105/3/6 111/3/6
f 108/3/6 109/3/6 112/3/6
f 112/3/6 109/3/6 113/3/6
f 106/3/6 107/3/6 114/3/6
f 114/3/6 107/3/6 115/3/6
f 116/3/6 117/3/6 118/3/6
f 118/3/6 117/3/6 119/3/6
f 120/3/6 121/3/6 122/3/6
f 122/3/6 121/3/6 123/3/6
