# MagicaVoxel @ Ephtracy

# group
o 

# material
mtllib doubledoorway.mtl
usemtl palette

# normals
vn -1 0 0
vn 1 0 0
vn 0 0 1
vn 0 0 -1
vn 0 -1 0
vn 0 1 0

# texcoords
vt 0.958984 0.5
vt 0.966797 0.5
vt 0.986328 0.5
vt 0.994141 0.5

# verts
v -2 2 0.2
v -2 2 0.0999999
v -2 2 -5.96046e-08
v -2 2 -0.1
v -2 2.2 0.2
v -2 2.2 0.0999999
v -2 2.2 -5.96046e-08
v -2 5.8 0.2
v -2 5.8 0.0999999
v -2 5.8 -5.96046e-08
v -2 5.9 0.0999999
v -2 5.9 -5.96046e-08
v -2 5.9 -0.1
v -2 6 0.2
v -2 6 -0.1
v -1.2 2.2 0.2
v -1.2 2.2 0.0999999
v -1.2 4.7 0.2
v -1.2 4.7 0.0999999
v 1.1 2.1 0.2
v 1.1 2.1 -0.1
v 1.1 4.5 0.2
v 1.1 4.5 -0.1
v -1 2.1 0.2
v -1 2.1 -0.1
v -1 4.5 0.2
v -1 4.5 -0.1
v 1.3 2.2 0.2
v 1.3 2.2 0.0999999
v 1.3 4.7 0.2
v 1.3 4.7 0.0999999
v 2 2 0.2
v 2 2 0.0999999
v 2 2 -5.96046e-08
v 2 2 -0.1
v 2 2.2 0.2
v 2 2.2 0.0999999
v 2 2.2 -5.96046e-08
v 2 5.8 0.2
v 2 5.8 0.0999999
v 2 5.8 -5.96046e-08
v 2 5.9 0.0999999
v 2 5.9 -5.96046e-08
v 2 5.9 -0.1
v 2 6 0.2
v 2 6 -0.1
v -2 2 0.2
v -2 2.2 0.2
v -2 5.8 0.2
v -2 6 0.2
v -1.2 2.2 0.2
v -1.2 4.7 0.2
v -1 2.1 0.2
v -1 4.5 0.2
v 1.1 2.1 0.2
v 1.1 4.5 0.2
v 1.3 2.2 0.2
v 1.3 4.7 0.2
v 2 2 0.2
v 2 2.2 0.2
v 2 5.8 0.2
v 2 6 0.2
v -2 2.2 0.0999999
v -2 5.8 0.0999999
v -1.2 2.2 0.0999999
v -1.2 4.7 0.0999999
v 1.3 2.2 0.0999999
v 1.3 4.7 0.0999999
v 2 2.2 0.0999999
v 2 5.8 0.0999999
v -2 2 -0.1
v -2 5.9 -0.1
v -2 6 -0.1
v -1.1 2 -0.1
v -1.1 4.6 -0.1
v -1 2.1 -0.1
v -1 4.5 -0.1
v 1.1 2.1 -0.1
v 1.1 4.5 -0.1
v 1.2 2 -0.1
v 1.2 4.6 -0.1
v 2 2 -0.1
v 2 5.9 -0.1
v 2 6 -0.1
v -2 2 0.2
v 2 2 0.2
v -2 2 0.0999999
v -1.9 2 0.0999999
v -1 2 0.0999999
v 1.1 2 0.0999999
v 1.9 2 0.0999999
v 2 2 0.0999999
v -2 2 -5.96046e-08
v -1.9 2 -5.96046e-08
v -1.1 2 -5.96046e-08
v -1 2 -5.96046e-08
v 1.1 2 -5.96046e-08
v 1.2 2 -5.96046e-08
v 1.9 2 -5.96046e-08
v 2 2 -5.96046e-08
v -2 2 -0.1
v -1.1 2 -0.1
v 1.2 2 -0.1
v 2 2 -0.1
v -1 4.5 0.2
v 1.1 4.5 0.2
v -1 4.5 -0.1
v 1.1 4.5 -0.1
v -2 5.8 0.2
v 2 5.8 0.2
v -2 5.8 0.0999999
v 2 5.8 0.0999999
v -1 2.1 0.2
v 1.1 2.1 0.2
v -1 2.1 -0.1
v 1.1 2.1 -0.1
v -2 2.2 0.2
v -1.2 2.2 0.2
v 1.3 2.2 0.2
v 2 2.2 0.2
v -2 2.2 0.0999999
v -1.2 2.2 0.0999999
v 1.3 2.2 0.0999999
v 2 2.2 0.0999999
v -1.2 4.7 0.2
v 1.3 4.7 0.2
v -1.2 4.7 0.0999999
v 1.3 4.7 0.0999999
v -2 6 0.2
v 2 6 0.2
v -2 6 -0.1
v 2 6 -0.1

# faces
f 5/3/1 2/3/1 1/3/1
f 6/2/1 3/2/1 2/2/1
f 6/3/1 2/3/1 5/3/1
f 7/1/1 4/1/1 3/1/1
f 7/2/1 3/2/1 6/2/1
f 9/1/1 7/1/1 6/1/1
f 10/1/1 4/1/1 7/1/1
f 10/1/1 7/1/1 9/1/1
f 11/3/1 9/3/1 8/3/1
f 11/2/1 10/2/1 9/2/1
f 12/1/1 4/1/1 10/1/1
f 12/2/1 10/2/1 11/2/1
f 13/1/1 4/1/1 12/1/1
f 14/3/1 11/3/1 8/3/1
f 14/3/1 12/3/1 11/3/1
f 14/3/1 13/3/1 12/3/1
f 15/3/1 13/3/1 14/3/1
f 18/3/1 17/3/1 16/3/1
f 19/3/1 17/3/1 18/3/1
f 22/3/1 21/3/1 20/3/1
f 23/3/1 21/3/1 22/3/1
f 24/3/2 25/3/2 26/3/2
f 26/3/2 25/3/2 27/3/2
f 28/3/2 29/3/2 30/3/2
f 30/3/2 29/3/2 31/3/2
f 32/3/2 33/3/2 36/3/2
f 33/2/2 34/2/2 37/2/2
f 36/3/2 33/3/2 37/3/2
f 34/1/2 35/1/2 38/1/2
f 37/2/2 34/2/2 38/2/2
f 37/1/2 38/1/2 40/1/2
f 38/1/2 35/1/2 41/1/2
f 40/1/2 38/1/2 41/1/2
f 39/3/2 40/3/2 42/3/2
f 40/2/2 41/2/2 42/2/2
f 41/1/2 35/1/2 43/1/2
f 42/2/2 41/2/2 43/2/2
f 43/1/2 35/1/2 44/1/2
f 39/3/2 42/3/2 45/3/2
f 42/3/2 43/3/2 45/3/2
f 43/3/2 44/3/2 45/3/2
f 45/3/2 44/3/2 46/3/2
f 51/3/3 48/3/3 47/3/3
f 53/3/3 51/3/3 47/3/3
f 53/3/3 52/3/3 51/3/3
f 54/3/3 52/3/3 53/3/3
f 55/3/3 53/3/3 47/3/3
f 56/3/3 52/3/3 54/3/3
f 57/3/3 56/3/3 55/3/3
f 58/3/3 52/3/3 56/3/3
f 58/3/3 56/3/3 57/3/3
f 59/3/3 55/3/3 47/3/3
f 59/3/3 57/3/3 55/3/3
f 60/3/3 57/3/3 59/3/3
f 61/3/3 50/3/3 49/3/3
f 62/3/3 50/3/3 61/3/3
f 65/1/3 64/1/3 63/1/3
f 66/1/3 64/1/3 65/1/3
f 68/1/3 64/1/3 66/1/3
f 69/1/3 68/1/3 67/1/3
f 70/1/3 64/1/3 68/1/3
f 70/1/3 68/1/3 69/1/3
f 71/1/4 72/1/4 74/1/4
f 74/1/4 72/1/4 75/1/4
f 74/3/4 75/3/4 76/3/4
f 76/3/4 75/3/4 77/3/4
f 74/3/4 76/3/4 78/3/4
f 77/3/4 75/3/4 79/3/4
f 74/3/4 78/3/4 80/3/4
f 78/3/4 79/3/4 80/3/4
f 75/1/4 72/1/4 81/1/4
f 80/3/4 79/3/4 81/3/4
f 79/3/4 75/3/4 81/3/4
f 80/1/4 81/1/4 82/1/4
f 72/3/4 73/3/4 83/3/4
f 82/1/4 81/1/4 83/1/4
f 81/1/4 72/1/4 83/1/4
f 83/3/4 73/3/4 84/3/4
f 87/3/5 86/3/5 85/3/5
f 88/3/5 86/3/5 87/3/5
f 89/3/5 86/3/5 88/3/5
f 90/3/5 86/3/5 89/3/5
f 91/3/5 86/3/5 90/3/5
f 92/3/5 86/3/5 91/3/5
f 93/2/5 88/2/5 87/2/5
f 94/1/5 89/1/5 88/1/5
f 94/2/5 88/2/5 93/2/5
f 95/1/5 89/1/5 94/1/5
f 96/3/5 90/3/5 89/3/5
f 96/1/5 89/1/5 95/1/5
f 97/1/5 91/1/5 90/1/5
f 97/3/5 90/3/5 96/3/5
f 98/1/5 91/1/5 97/1/5
f 99/2/5 92/2/5 91/2/5
f 99/1/5 91/1/5 98/1/5
f 100/2/5 92/2/5 99/2/5
f 101/1/5 95/1/5 94/1/5
f 101/1/5 94/1/5 93/1/5
f 102/3/5 96/3/5 95/3/5
f 102/1/5 95/1/5 101/1/5
f 102/3/5 98/3/5 97/3/5
f 102/3/5 97/3/5 96/3/5
f 103/1/5 99/1/5 98/1/5
f 103/3/5 98/3/5 102/3/5
f 103/1/5 100/1/5 99/1/5
f 104/1/5 100/1/5 103/1/5
f 107/3/5 106/3/5 105/3/5
f 108/3/5 106/3/5 107/3/5
f 111/3/5 110/3/5 109/3/5
f 112/3/5 110/3/5 111/3/5
f 113/3/6 114/3/6 115/3/6
f 115/3/6 114/3/6 116/3/6
f 117/3/6 118/3/6 121/3/6
f 121/3/6 118/3/6 122/3/6
f 119/3/6 120/3/6 123/3/6
f 123/3/6 120/3/6 124/3/6
f 125/3/6 126/3/6 127/3/6
f 127/3/6 126/3/6 128/3/6
f 129/3/6 130/3/6 131/3/6
f 131/3/6 130/3/6 132/3/6
