# MagicaVoxel @ Ephtracy

# group
o 

# material
mtllib stall.mtl
usemtl palette

# normals
vn -1 0 0
vn 1 0 0
vn 0 0 1
vn 0 0 -1
vn 0 -1 0
vn 0 1 0

# texcoords
vt 0.978516 0.5
vt 0.986328 0.5
vt 0.990234 0.5

# verts
v -0.7 0 0.8
v -0.7 0 0.7
v -0.7 0 -0.5
v -0.7 0 -0.6
v -0.7 0.1 0.7
v -0.7 0.1 -0.5
v -0.7 1.7 0.8
v -0.7 1.7 -0.6
v 0.5 0.8 0.9
v 0.5 0.8 0.8
v 0.5 1 0.9
v 0.5 1 0.8
v 0.9 0 0.8
v 0.9 0 0.7
v 0.9 0 -0.5
v 0.9 0 -0.6
v 0.9 0.1 0.8
v 0.9 0.1 0.7
v 0.9 0.1 -0.5
v 0.9 0.1 -0.6
v 0.9 1.7 0.7
v 0.9 1.7 -0.5
v -0.6 0 0.8
v -0.6 0 0.7
v -0.6 0 -0.5
v -0.6 0 -0.6
v -0.6 0.1 0.8
v -0.6 0.1 0.7
v -0.6 0.1 -0.5
v -0.6 0.1 -0.6
v -0.6 1.7 0.7
v -0.6 1.7 -0.5
v 0.6 0.8 0.9
v 0.6 0.8 0.8
v 0.6 1 0.9
v 0.6 1 0.8
v 1 0 0.8
v 1 0 0.7
v 1 0 -0.5
v 1 0 -0.6
v 1 0.1 0.7
v 1 0.1 -0.5
v 1 1.7 0.8
v 1 1.7 -0.6
v 0.5 0.8 0.9
v 0.5 1 0.9
v 0.6 0.8 0.9
v 0.6 1 0.9
v -0.7 0 0.8
v -0.7 1.7 0.8
v -0.6 0 0.8
v -0.6 0.1 0.8
v -0.4 0.1 0.8
v -0.4 1.6 0.8
v 0.5 0.8 0.8
v 0.5 1 0.8
v 0.6 0.8 0.8
v 0.6 1 0.8
v 0.7 0.1 0.8
v 0.7 1.6 0.8
v 0.9 0 0.8
v 0.9 0.1 0.8
v 1 0 0.8
v 1 1.7 0.8
v -0.7 0 -0.5
v -0.7 0.1 -0.5
v -0.6 0 -0.5
v -0.6 0.1 -0.5
v -0.6 1.7 -0.5
v 0.9 0 -0.5
v 0.9 0.1 -0.5
v 0.9 1.7 -0.5
v 1 0 -0.5
v 1 0.1 -0.5
v -0.7 0 0.7
v -0.7 0.1 0.7
v -0.6 0 0.7
v -0.6 0.1 0.7
v -0.6 1.7 0.7
v -0.4 0.1 0.7
v -0.4 1.6 0.7
v 0.7 0.1 0.7
v 0.7 1.6 0.7
v 0.9 0 0.7
v 0.9 0.1 0.7
v 0.9 1.7 0.7
v 1 0 0.7
v 1 0.1 0.7
v -0.7 0 -0.6
v -0.7 1.7 -0.6
v -0.6 0 -0.6
v -0.6 0.1 -0.6
v 0.9 0 -0.6
v 0.9 0.1 -0.6
v 1 0 -0.6
v 1 1.7 -0.6
v -0.7 0 0.8
v -0.6 0 0.8
v 0.9 0 0.8
v 1 0 0.8
v -0.7 0 0.7
v -0.6 0 0.7
v 0.9 0 0.7
v 1 0 0.7
v -0.7 0 -0.5
v -0.6 0 -0.5
v 0.9 0 -0.5
v 1 0 -0.5
v -0.7 0 -0.6
v -0.6 0 -0.6
v 0.9 0 -0.6
v 1 0 -0.6
v -0.6 0.1 0.8
v -0.4 0.1 0.8
v 0.7 0.1 0.8
v 0.9 0.1 0.8
v -0.7 0.1 0.7
v -0.6 0.1 0.7
v -0.4 0.1 0.7
v 0.7 0.1 0.7
v 0.9 0.1 0.7
v 1 0.1 0.7
v -0.7 0.1 -0.5
v -0.6 0.1 -0.5
v 0.9 0.1 -0.5
v 1 0.1 -0.5
v -0.6 0.1 -0.6
v 0.9 0.1 -0.6
v 0.5 0.8 0.9
v 0.6 0.8 0.9
v 0.5 0.8 0.8
v 0.6 0.8 0.8
v 0.5 1 0.9
v 0.6 1 0.9
v 0.5 1 0.8
v 0.6 1 0.8
v -0.7 1.7 0.8
v 1 1.7 0.8
v -0.6 1.7 0.7
v 0.9 1.7 0.7
v -0.6 1.7 -0.5
v 0.9 1.7 -0.5
v -0.7 1.7 -0.6
v 1 1.7 -0.6

# faces
f 5/2/1 2/2/1 1/2/1
f 6/2/1 4/2/1 3/2/1
f 7/2/1 5/2/1 1/2/1
f 7/2/1 6/2/1 5/2/1
f 8/2/1 4/2/1 6/2/1
f 8/2/1 6/2/1 7/2/1
f 11/3/1 10/3/1 9/3/1
f 12/3/1 10/3/1 11/3/1
f 17/2/1 14/2/1 13/2/1
f 18/2/1 14/2/1 17/2/1
f 19/2/1 16/2/1 15/2/1
f 20/2/1 16/2/1 19/2/1
f 21/2/1 19/2/1 18/2/1
f 22/2/1 19/2/1 21/2/1
f 23/2/2 24/2/2 27/2/2
f 27/2/2 24/2/2 28/2/2
f 25/2/2 26/2/2 29/2/2
f 29/2/2 26/2/2 30/2/2
f 28/2/2 29/2/2 31/2/2
f 31/2/2 29/2/2 32/2/2
f 33/3/2 34/3/2 35/3/2
f 35/3/2 34/3/2 36/3/2
f 37/2/2 38/2/2 41/2/2
f 39/2/2 40/2/2 42/2/2
f 37/2/2 41/2/2 43/2/2
f 41/2/2 42/2/2 43/2/2
f 42/2/2 40/2/2 44/2/2
f 43/2/2 42/2/2 44/2/2
f 47/3/3 46/3/3 45/3/3
f 48/3/3 46/3/3 47/3/3
f 51/2/3 50/2/3 49/2/3
f 52/2/3 50/2/3 51/2/3
f 53/2/3 50/2/3 52/2/3
f 54/2/3 50/2/3 53/2/3
f 55/1/3 54/1/3 53/1/3
f 56/1/3 54/1/3 55/1/3
f 57/1/3 55/1/3 53/1/3
f 58/1/3 54/1/3 56/1/3
f 59/1/3 57/1/3 53/1/3
f 59/1/3 58/1/3 57/1/3
f 60/2/3 50/2/3 54/2/3
f 60/1/3 58/1/3 59/1/3
f 60/1/3 54/1/3 58/1/3
f 62/2/3 60/2/3 59/2/3
f 63/2/3 62/2/3 61/2/3
f 64/2/3 50/2/3 60/2/3
f 64/2/3 62/2/3 63/2/3
f 64/2/3 60/2/3 62/2/3
f 67/2/3 66/2/3 65/2/3
f 68/2/3 66/2/3 67/2/3
f 71/2/3 69/2/3 68/2/3
f 72/2/3 69/2/3 71/2/3
f 73/2/3 71/2/3 70/2/3
f 74/2/3 71/2/3 73/2/3
f 75/2/4 76/2/4 77/2/4
f 77/2/4 76/2/4 78/2/4
f 78/2/4 79/2/4 80/2/4
f 80/2/4 79/2/4 81/2/4
f 80/1/4 81/1/4 82/1/4
f 81/2/4 79/2/4 83/2/4
f 82/1/4 81/1/4 83/1/4
f 82/2/4 83/2/4 85/2/4
f 83/2/4 79/2/4 86/2/4
f 85/2/4 83/2/4 86/2/4
f 84/2/4 85/2/4 87/2/4
f 87/2/4 85/2/4 88/2/4
f 89/2/4 90/2/4 91/2/4
f 91/2/4 90/2/4 92/2/4
f 92/2/4 90/2/4 94/2/4
f 93/2/4 94/2/4 95/2/4
f 94/2/4 90/2/4 96/2/4
f 95/2/4 94/2/4 96/2/4
f 101/2/5 98/2/5 97/2/5
f 102/2/5 98/2/5 101/2/5
f 103/2/5 100/2/5 99/2/5
f 104/2/5 100/2/5 103/2/5
f 109/2/5 106/2/5 105/2/5
f 110/2/5 106/2/5 109/2/5
f 111/2/5 108/2/5 107/2/5
f 112/2/5 108/2/5 111/2/5
f 118/2/5 114/2/5 113/2/5
f 119/1/5 115/1/5 114/1/5
f 119/2/5 114/2/5 118/2/5
f 120/2/5 116/2/5 115/2/5
f 120/1/5 115/1/5 119/1/5
f 121/2/5 116/2/5 120/2/5
f 123/2/5 118/2/5 117/2/5
f 124/2/5 118/2/5 123/2/5
f 125/2/5 122/2/5 121/2/5
f 126/2/5 122/2/5 125/2/5
f 127/2/5 125/2/5 124/2/5
f 128/2/5 125/2/5 127/2/5
f 131/3/5 130/3/5 129/3/5
f 132/3/5 130/3/5 131/3/5
f 133/3/6 134/3/6 135/3/6
f 135/3/6 134/3/6 136/3/6
f 137/2/6 138/2/6 139/2/6
f 139/2/6 138/2/6 140/2/6
f 137/2/6 139/2/6 141/2/6
f 140/2/6 138/2/6 142/2/6
f 137/2/6 141/2/6 143/2/6
f 141/2/6 142/2/6 143/2/6
f 142/2/6 138/2/6 144/2/6
f 143/2/6 142/2/6 144/2/6
