# MagicaVoxel @ Ephtracy

# group
o 

# material
mtllib wall.mtl
usemtl palette

# normals
vn -1 0 0
vn 1 0 0
vn 0 0 1
vn 0 0 -1
vn 0 -1 0
vn 0 1 0

# texcoords
vt 0.587891 0.5
vt 0.958984 0.5
vt 0.986328 0.5

# verts
v -2 0 0.1
v -2 0 -0.1
v -2 0.1 0.1
v -2 0.1 0
v -2 0.1 -0.1
v -2 2.1 0
v -2 2.1 -0.1
v -2 3.9 0.1
v -2 3.9 0
v -2 3.9 -0.1
v -2 4 0.1
v -2 4 -0.1
v 2 0 0.1
v 2 0 -0.1
v 2 0.1 0.1
v 2 0.1 0
v 2 0.1 -0.1
v 2 2.1 0
v 2 2.1 -0.1
v 2 3.9 0.1
v 2 3.9 0
v 2 3.9 -0.1
v 2 4 0.1
v 2 4 -0.1
v -2 0 0.1
v -2 0.1 0.1
v -2 3.9 0.1
v -2 4 0.1
v 2 0 0.1
v 2 0.1 0.1
v 2 3.9 0.1
v 2 4 0.1
v -2 0.1 0
v -2 2.1 0
v -2 3.9 0
v 2 0.1 0
v 2 2.1 0
v 2 3.9 0
v -2 0 -0.1
v -2 0.1 -0.1
v -2 2.1 -0.1
v -2 3.9 -0.1
v -2 4 -0.1
v 2 0 -0.1
v 2 0.1 -0.1
v 2 2.1 -0.1
v 2 3.9 -0.1
v 2 4 -0.1
v -2 0 0.1
v 2 0 0.1
v -2 0 -0.1
v 2 0 -0.1
v -2 3.9 0.1
v 2 3.9 0.1
v -2 3.9 0
v 2 3.9 0
v -2 0.1 0.1
v 2 0.1 0.1
v -2 0.1 0
v 2 0.1 0
v -2 4 0.1
v 2 4 0.1
v -2 4 -0.1
v 2 4 -0.1

# faces
f 3/3/1 2/3/1 1/3/1
f 4/3/1 2/3/1 3/3/1
f 5/3/1 2/3/1 4/3/1
f 6/1/1 5/1/1 4/1/1
f 7/1/1 5/1/1 6/1/1
f 9/2/1 7/2/1 6/2/1
f 10/2/1 7/2/1 9/2/1
f 11/3/1 9/3/1 8/3/1
f 11/3/1 10/3/1 9/3/1
f 12/3/1 10/3/1 11/3/1
f 13/3/2 14/3/2 15/3/2
f 15/3/2 14/3/2 16/3/2
f 16/3/2 14/3/2 17/3/2
f 16/1/2 17/1/2 18/1/2
f 18/1/2 17/1/2 19/1/2
f 18/2/2 19/2/2 21/2/2
f 21/2/2 19/2/2 22/2/2
f 20/3/2 21/3/2 23/3/2
f 21/3/2 22/3/2 23/3/2
f 23/3/2 22/3/2 24/3/2
f 29/3/3 26/3/3 25/3/3
f 30/3/3 26/3/3 29/3/3
f 31/3/3 28/3/3 27/3/3
f 32/3/3 28/3/3 31/3/3
f 36/1/3 34/1/3 33/1/3
f 37/2/3 35/2/3 34/2/3
f 37/1/3 34/1/3 36/1/3
f 38/2/3 35/2/3 37/2/3
f 39/3/4 40/3/4 44/3/4
f 40/1/4 41/1/4 45/1/4
f 44/3/4 40/3/4 45/3/4
f 41/2/4 42/2/4 46/2/4
f 45/1/4 41/1/4 46/1/4
f 42/3/4 43/3/4 47/3/4
f 46/2/4 42/2/4 47/2/4
f 47/3/4 43/3/4 48/3/4
f 51/3/5 50/3/5 49/3/5
f 52/3/5 50/3/5 51/3/5
f 55/3/5 54/3/5 53/3/5
f 56/3/5 54/3/5 55/3/5
f 57/3/6 58/3/6 59/3/6
f 59/3/6 58/3/6 60/3/6
f 61/3/6 62/3/6 63/3/6
f 63/3/6 62/3/6 64/3/6
